<?xml version="1.0" encoding="UTF-8"?>
<!DOCTYPE svg PUBLIC "-//W3C//DTD SVG 1.1//EN" "http://www.w3.org/Graphics/SVG/1.1/DTD/svg11.dtd">
<svg xmlns="http://www.w3.org/2000/svg" version="1.1" width="128px" height="128px" style="shape-rendering:geometricPrecision; text-rendering:geometricPrecision; image-rendering:optimizeQuality; fill-rule:evenodd; clip-rule:evenodd" xmlns:xlink="http://www.w3.org/1999/xlink">
<g><path style="opacity:1" fill="#000000" d="M 87.5,15.5 C 82.1667,15.5 76.8333,15.5 71.5,15.5C 71.5,12.8333 71.5,10.1667 71.5,7.5C 76.8333,7.5 82.1667,7.5 87.5,7.5C 87.5,10.1667 87.5,12.8333 87.5,15.5 Z"/></g>
<g><path style="opacity:1" fill="#000100" d="M 111.5,15.5 C 106.167,15.5 100.833,15.5 95.5,15.5C 95.5,12.8333 95.5,10.1667 95.5,7.5C 100.833,7.5 106.167,7.5 111.5,7.5C 111.5,10.1667 111.5,12.8333 111.5,15.5 Z"/></g>
<g><path style="opacity:1" fill="#000000" d="M 71.5,15.5 C 71.5,20.8333 71.5,26.1667 71.5,31.5C 76.8333,31.5 82.1667,31.5 87.5,31.5C 87.5,34.1667 87.5,36.8333 87.5,39.5C 90.1667,39.5 92.8333,39.5 95.5,39.5C 95.5,44.8333 95.5,50.1667 95.5,55.5C 100.833,55.5 106.167,55.5 111.5,55.5C 111.5,58.1667 111.5,60.8333 111.5,63.5C 106.167,63.5 100.833,63.5 95.5,63.5C 95.5,66.1667 95.5,68.8333 95.5,71.5C 92.8333,71.5 90.1667,71.5 87.5,71.5C 87.5,63.5 87.5,55.5 87.5,47.5C 84.8333,47.5 82.1667,47.5 79.5,47.5C 79.5,44.8333 79.5,42.1667 79.5,39.5C 71.5,39.5 63.5,39.5 55.5,39.5C 55.5,36.8333 55.5,34.1667 55.5,31.5C 58.1667,31.5 60.8333,31.5 63.5,31.5C 63.5,26.1667 63.5,20.8333 63.5,15.5C 66.1667,15.5 68.8333,15.5 71.5,15.5 Z"/></g>
<g><path style="opacity:1" fill="#f8fafa" d="M 71.5,15.5 C 76.8333,15.5 82.1667,15.5 87.5,15.5C 87.5,20.8333 87.5,26.1667 87.5,31.5C 82.1667,31.5 76.8333,31.5 71.5,31.5C 71.5,26.1667 71.5,20.8333 71.5,15.5 Z"/></g>
<g><path style="opacity:1" fill="#000000" d="M 87.5,15.5 C 90.1667,15.5 92.8333,15.5 95.5,15.5C 95.5,20.8333 95.5,26.1667 95.5,31.5C 92.8333,31.5 90.1667,31.5 87.5,31.5C 87.5,26.1667 87.5,20.8333 87.5,15.5 Z"/></g>
<g><path style="opacity:1" fill="#f8fafa" d="M 95.5,15.5 C 100.833,15.5 106.167,15.5 111.5,15.5C 111.5,20.8333 111.5,26.1667 111.5,31.5C 106.167,31.5 100.833,31.5 95.5,31.5C 95.5,26.1667 95.5,20.8333 95.5,15.5 Z"/></g>
<g><path style="opacity:1" fill="#000000" d="M 111.5,15.5 C 114.167,15.5 116.833,15.5 119.5,15.5C 119.5,20.8333 119.5,26.1667 119.5,31.5C 116.833,31.5 114.167,31.5 111.5,31.5C 111.5,26.1667 111.5,20.8333 111.5,15.5 Z"/></g>
<g><path style="opacity:1" fill="#f8fafa" d="M 87.5,31.5 C 90.1667,31.5 92.8333,31.5 95.5,31.5C 95.5,34.1667 95.5,36.8333 95.5,39.5C 92.8333,39.5 90.1667,39.5 87.5,39.5C 87.5,36.8333 87.5,34.1667 87.5,31.5 Z"/></g>
<g><path style="opacity:1" fill="#000000" d="M 95.5,31.5 C 100.833,31.5 106.167,31.5 111.5,31.5C 111.5,34.1667 111.5,36.8333 111.5,39.5C 106.167,39.5 100.833,39.5 95.5,39.5C 95.5,36.8333 95.5,34.1667 95.5,31.5 Z"/></g>
<g><path style="opacity:1" fill="#000000" d="M 55.5,39.5 C 55.5,42.1667 55.5,44.8333 55.5,47.5C 52.8333,47.5 50.1667,47.5 47.5,47.5C 47.5,44.8333 47.5,42.1667 47.5,39.5C 50.1667,39.5 52.8333,39.5 55.5,39.5 Z"/></g>
<g><path style="opacity:1" fill="#f8fafa" d="M 55.5,39.5 C 63.5,39.5 71.5,39.5 79.5,39.5C 79.5,42.1667 79.5,44.8333 79.5,47.5C 82.1667,47.5 84.8333,47.5 87.5,47.5C 87.5,55.5 87.5,63.5 87.5,71.5C 84.8333,71.5 82.1667,71.5 79.5,71.5C 79.5,74.1667 79.5,76.8333 79.5,79.5C 74.1667,79.5 68.8333,79.5 63.5,79.5C 63.5,82.1667 63.5,84.8333 63.5,87.5C 60.8333,87.5 58.1667,87.5 55.5,87.5C 55.5,90.1667 55.5,92.8333 55.5,95.5C 50.1667,95.5 44.8333,95.5 39.5,95.5C 39.5,98.1667 39.5,100.833 39.5,103.5C 36.8333,103.5 34.1667,103.5 31.5,103.5C 31.5,106.167 31.5,108.833 31.5,111.5C 26.1667,111.5 20.8333,111.5 15.5,111.5C 15.5,106.167 15.5,100.833 15.5,95.5C 18.1667,95.5 20.8333,95.5 23.5,95.5C 23.5,92.8333 23.5,90.1667 23.5,87.5C 26.1667,87.5 28.8333,87.5 31.5,87.5C 31.5,82.1667 31.5,76.8333 31.5,71.5C 34.1667,71.5 36.8333,71.5 39.5,71.5C 39.5,68.8333 39.5,66.1667 39.5,63.5C 42.1667,63.5 44.8333,63.5 47.5,63.5C 47.5,58.1667 47.5,52.8333 47.5,47.5C 50.1667,47.5 52.8333,47.5 55.5,47.5C 55.5,44.8333 55.5,42.1667 55.5,39.5 Z"/></g>
<g><path style="opacity:1" fill="#f8fafa" d="M 95.5,39.5 C 100.833,39.5 106.167,39.5 111.5,39.5C 111.5,44.8333 111.5,50.1667 111.5,55.5C 106.167,55.5 100.833,55.5 95.5,55.5C 95.5,50.1667 95.5,44.8333 95.5,39.5 Z"/></g>
<g><path style="opacity:1" fill="#000000" d="M 111.5,39.5 C 114.167,39.5 116.833,39.5 119.5,39.5C 119.5,44.8333 119.5,50.1667 119.5,55.5C 116.833,55.5 114.167,55.5 111.5,55.5C 111.5,50.1667 111.5,44.8333 111.5,39.5 Z"/></g>
<g><path style="opacity:1" fill="#000001" d="M 47.5,47.5 C 47.5,52.8333 47.5,58.1667 47.5,63.5C 44.8333,63.5 42.1667,63.5 39.5,63.5C 39.5,58.1667 39.5,52.8333 39.5,47.5C 42.1667,47.5 44.8333,47.5 47.5,47.5 Z"/></g>
<g><path style="opacity:1" fill="#000000" d="M 39.5,63.5 C 39.5,66.1667 39.5,68.8333 39.5,71.5C 36.8333,71.5 34.1667,71.5 31.5,71.5C 31.5,68.8333 31.5,66.1667 31.5,63.5C 34.1667,63.5 36.8333,63.5 39.5,63.5 Z"/></g>
<g><path style="opacity:1" fill="#000000" d="M 31.5,71.5 C 31.5,76.8333 31.5,82.1667 31.5,87.5C 28.8333,87.5 26.1667,87.5 23.5,87.5C 23.5,82.1667 23.5,76.8333 23.5,71.5C 26.1667,71.5 28.8333,71.5 31.5,71.5 Z"/></g>
<g><path style="opacity:1" fill="#000000" d="M 87.5,71.5 C 87.5,74.1667 87.5,76.8333 87.5,79.5C 84.8333,79.5 82.1667,79.5 79.5,79.5C 79.5,76.8333 79.5,74.1667 79.5,71.5C 82.1667,71.5 84.8333,71.5 87.5,71.5 Z"/></g>
<g><path style="opacity:1" fill="#000100" d="M 79.5,79.5 C 79.5,82.1667 79.5,84.8333 79.5,87.5C 74.1667,87.5 68.8333,87.5 63.5,87.5C 63.5,84.8333 63.5,82.1667 63.5,79.5C 68.8333,79.5 74.1667,79.5 79.5,79.5 Z"/></g>
<g><path style="opacity:1" fill="#000000" d="M 23.5,87.5 C 23.5,90.1667 23.5,92.8333 23.5,95.5C 20.8333,95.5 18.1667,95.5 15.5,95.5C 15.5,92.8333 15.5,90.1667 15.5,87.5C 18.1667,87.5 20.8333,87.5 23.5,87.5 Z"/></g>
<g><path style="opacity:1" fill="#000000" d="M 63.5,87.5 C 63.5,90.1667 63.5,92.8333 63.5,95.5C 60.8333,95.5 58.1667,95.5 55.5,95.5C 55.5,92.8333 55.5,90.1667 55.5,87.5C 58.1667,87.5 60.8333,87.5 63.5,87.5 Z"/></g>
<g><path style="opacity:1" fill="#000000" d="M 15.5,95.5 C 15.5,100.833 15.5,106.167 15.5,111.5C 12.8333,111.5 10.1667,111.5 7.5,111.5C 7.5,106.167 7.5,100.833 7.5,95.5C 10.1667,95.5 12.8333,95.5 15.5,95.5 Z"/></g>
<g><path style="opacity:1" fill="#000000" d="M 55.5,95.5 C 55.5,98.1667 55.5,100.833 55.5,103.5C 50.1667,103.5 44.8333,103.5 39.5,103.5C 39.5,100.833 39.5,98.1667 39.5,95.5C 44.8333,95.5 50.1667,95.5 55.5,95.5 Z"/></g>
<g><path style="opacity:1" fill="#000100" d="M 39.5,103.5 C 39.5,106.167 39.5,108.833 39.5,111.5C 36.8333,111.5 34.1667,111.5 31.5,111.5C 31.5,108.833 31.5,106.167 31.5,103.5C 34.1667,103.5 36.8333,103.5 39.5,103.5 Z"/></g>
<g><path style="opacity:1" fill="#000100" d="M 15.5,111.5 C 20.8333,111.5 26.1667,111.5 31.5,111.5C 31.5,114.167 31.5,116.833 31.5,119.5C 26.1667,119.5 20.8333,119.5 15.5,119.5C 15.5,116.833 15.5,114.167 15.5,111.5 Z"/></g>
</svg>
